<?xml version="1.0" encoding="iso-8859-1"?>
<!-- Generator: Adobe Illustrator 19.0.0, SVG Export Plug-In . SVG Version: 6.00 Build 0)  -->
<svg version="1.1" id="Layer_1" xmlns="http://www.w3.org/2000/svg" xmlns:xlink="http://www.w3.org/1999/xlink" x="0px" y="0px"
	 viewBox="0 0 512 512" style="enable-background:new 0 0 512 512;" xml:space="preserve">
<g>
	<g>
		<path d="M149.99,271.151H99.317c-12.679,0-22.994,10.315-22.994,22.993v73.077c0,12.679,10.315,22.995,22.994,22.995h50.673
			c12.679,0,22.994-10.315,22.994-22.995v-73.077C172.983,281.465,162.669,271.151,149.99,271.151z M139.749,356.98h-0.001h-30.19
			v-52.594h30.191V356.98z"/>
	</g>
</g>
<g>
	<g>
		<path d="M413.361,271.151h-50.673c-12.679,0-22.994,10.315-22.994,22.993v73.077c0,12.679,10.315,22.995,22.994,22.995h50.673
			c12.679,0,22.994-10.315,22.994-22.995v-73.077C436.355,281.465,426.04,271.151,413.361,271.151z M403.12,356.98h-30.191v-52.594
			h30.191V356.98z"/>
	</g>
</g>
<g>
	<g>
		<path d="M503.942,207.914L266.826,4.018c-6.232-5.358-15.439-5.358-21.671,0L7.512,208.365
			c-5.269,4.531-7.162,11.862-4.746,18.378c2.417,6.515,8.632,10.839,15.581,10.839h13.314v257.8c0,9.177,7.44,16.618,16.618,16.618
			h149.137c9.177,0,16.618-7.44,16.618-16.618V358.075h83.912v137.308c0,9.177,7.44,16.618,16.618,16.618H463.7
			c9.177,0,16.618-7.44,16.618-16.618v-257.8h13.314c0.009-0.001,0.016-0.001,0.022,0c9.179,0,16.618-7.44,16.618-16.618
			C510.272,215.672,507.797,210.956,503.942,207.914z M447.082,478.765H331.18v0V354.259c0-16.223-13.198-29.421-29.421-29.421
			h-91.54c-16.223,0-29.422,13.198-29.422,29.421v124.505H64.896V237.583h382.186V478.765z M63.16,204.347L255.99,38.534
			l192.829,165.812H63.16z"/>
	</g>
</g>
<g>
</g>
<g>
</g>
<g>
</g>
<g>
</g>
<g>
</g>
<g>
</g>
<g>
</g>
<g>
</g>
<g>
</g>
<g>
</g>
<g>
</g>
<g>
</g>
<g>
</g>
<g>
</g>
<g>
</g>
</svg>
